<svg id="Layer_1" enable-background="new 0 0 100 100" viewBox="0 0 100 100" xmlns="http://www.w3.org/2000/svg"><g><path clip-rule="evenodd" d="m50 2.5c-26.1960335 0-47.5000229 21.303997-47.5 47.5.0000124 26.1960068 21.3039913 47.5 47.5 47.5s47.4999924-21.3039932 47.5-47.5c.0000229-26.196003-21.3039627-47.5-47.5-47.5zm0 22.166666c3.508667 0 6.3333321 2.8246689 6.3333321 6.333334v12.6666679h12.6666679c3.508667 0 6.3333359 2.8246651 6.3333359 6.3333321s-2.8246689 6.3333321-6.3333359 6.3333321h-12.6666679v12.6666679c0 3.508667-2.8246651 6.3333359-6.3333321 6.3333359s-6.3333321-2.8246689-6.3333321-6.3333359v-12.6666679h-12.6666679c-3.5086651 0-6.3333321-2.8246651-6.3333321-6.3333321s2.824667-6.3333321 6.3333321-6.3333321h12.6666679v-12.6666679c0-3.5086651 2.8246651-6.333334 6.3333321-6.333334z" fill="#192d75" fill-rule="evenodd"/></g></svg>