<svg  viewBox="0 0 512 512" xmlns="http://www.w3.org/2000/svg" xmlns:xlink="http://www.w3.org/1999/xlink" data-name="Layer 2"><linearGradient id="linear-gradient" gradientUnits="userSpaceOnUse" x1="43.93" x2="468.07" y1="43.93" y2="468.07"><stop offset="0" stop-color="#54bdff"/><stop offset="1" stop-color="#0042c7"/></linearGradient><g id="Icon"><g id="_64" data-name="64"><rect id="Background" fill="url(#linear-gradient)" height="512" rx="150" width="512"/><path d="m282.32 153.62v75.6h76.05c5.4 0 9.29 4.35 11.7 13.05 1.2 4.5 1.8 8.85 1.8 13.05s-.61 8.55-1.8 13.05c-2.4 8.7-6.3 13.05-11.7 13.05h-76.05v76.95c0 5.4-4.35 9.3-13.05 11.7-4.2 1.2-8.55 1.8-13.05 1.8l-13.05-1.8c-8.71-2.4-13.05-6.3-13.05-11.7v-76.95h-76.5c-5.4 0-9.3-4.35-11.7-13.05-1.2-4.5-1.8-8.85-1.8-13.05s.6-8.55 1.8-13.05c2.4-8.7 6.3-13.05 11.7-13.05h76.5v-75.6c0-5.4 4.34-9.3 13.05-11.7 4.2-1.2 8.55-1.8 13.05-1.8l13.05 1.8c8.7 2.4 13.05 6.3 13.05 11.7z" fill="#fff"/></g></g></svg>